<?xml version="1.0" encoding="utf-8" standalone="no"?>
<!DOCTYPE svg PUBLIC "-//W3C//DTD SVG 1.1//EN"
  "http://www.w3.org/Graphics/SVG/1.1/DTD/svg11.dtd">
<svg xmlns:xlink="http://www.w3.org/1999/xlink" width="1035pt" height="1035pt" viewBox="0 0 1035 1035" xmlns="http://www.w3.org/2000/svg" version="1.1">
 <metadata>
  <rdf:RDF xmlns:dc="http://purl.org/dc/elements/1.1/" xmlns:cc="http://creativecommons.org/ns#" xmlns:rdf="http://www.w3.org/1999/02/22-rdf-syntax-ns#">
   <cc:Work>
    <dc:type rdf:resource="http://purl.org/dc/dcmitype/StillImage"/>
    <dc:date>2024-03-03T23:35:00.994033</dc:date>
    <dc:format>image/svg+xml</dc:format>
    <dc:creator>
     <cc:Agent>
      <dc:title>Matplotlib v3.8.0, https://matplotlib.org/</dc:title>
     </cc:Agent>
    </dc:creator>
   </cc:Work>
  </rdf:RDF>
 </metadata>
 <defs>
  <style type="text/css">*{stroke-linejoin: round; stroke-linecap: butt}</style>
 </defs>
 <g id="figure_1">
  <g id="patch_1">
   <path d="M 0 1035 
L 1035 1035 
L 1035 0 
L 0 0 
z
" style="fill: #ffffff"/>
  </g>
  <g id="axes_1">
   <g id="patch_2">
    <path d="M 129.375 839.0354 
L 129.375 206.3146 
L 931.5 206.3146 
L 931.5 839.0354 
L 129.375 839.0354 
" style="fill: #ffffff"/>
   </g>
   <g id="GeoContourSet_1">
    <path d="M 165.025 829.996531 
L 182.85 829.996531 
L 200.675 829.996531 
L 218.5 829.996531 
L 236.325 829.996531 
L 254.15 829.996531 
L 271.975 829.996531 
L 289.8 829.996531 
L 307.625 829.996531 
L 325.45 829.996531 
L 343.275 829.996531 
L 361.1 829.996531 
L 378.925 829.996531 
L 396.75 829.996531 
L 414.575 829.996531 
L 432.4 829.996531 
L 450.225 829.996531 
L 468.05 829.996531 
L 485.875 829.996531 
L 503.7 829.996531 
L 521.525 829.996531 
L 539.35 829.996531 
L 557.175 829.996531 
L 575 829.996531 
L 583.9125 820.957663 
L 575 811.918794 
L 557.175 811.918794 
L 539.35 811.918794 
L 530.4375 802.879926 
L 521.525 793.841057 
L 503.7 793.841057 
L 494.7875 784.802188 
L 485.875 775.76332 
L 468.05 775.76332 
L 459.1375 766.724451 
L 450.225 757.685583 
L 432.4 757.685583 
L 423.4875 748.646714 
L 414.575 739.607846 
L 396.75 739.607846 
L 378.925 739.607846 
L 361.1 739.607846 
L 343.275 739.607846 
L 325.45 739.607846 
L 307.625 739.607846 
L 289.8 739.607846 
L 280.8875 730.568977 
L 271.975 721.530109 
L 254.15 721.530109 
L 236.325 721.530109 
L 218.5 721.530109 
L 200.675 721.530109 
L 191.7625 730.568977 
L 182.85 739.607846 
L 165.025 739.607846 
L 147.2 739.607846 
L 138.2875 748.646714 
L 138.2875 766.724451 
L 138.2875 784.802188 
L 138.2875 802.879926 
L 147.2 811.918794 
L 156.1125 820.957663 
z
M 824.55 829.996531 
L 842.375 829.996531 
L 860.2 829.996531 
L 878.025 829.996531 
L 895.85 829.996531 
L 904.7625 820.957663 
L 913.675 811.918794 
L 922.5875 802.879926 
L 922.5875 784.802188 
L 922.5875 766.724451 
L 922.5875 748.646714 
L 913.675 739.607846 
L 904.7625 748.646714 
L 895.85 757.685583 
L 886.9375 766.724451 
L 886.9375 784.802188 
L 878.025 793.841057 
L 860.2 793.841057 
L 851.2875 802.879926 
L 842.375 811.918794 
L 824.55 811.918794 
L 815.6375 820.957663 
z
M 771.075 811.918794 
L 788.9 811.918794 
L 797.8125 802.879926 
L 788.9 793.841057 
L 771.075 793.841057 
L 762.1625 802.879926 
z
M 147.2 721.530109 
L 156.1125 712.49124 
L 165.025 703.452371 
L 173.9375 694.413503 
L 165.025 685.374634 
L 147.2 685.374634 
L 138.2875 694.413503 
L 138.2875 712.49124 
z
M 735.425 721.530109 
L 753.25 721.530109 
L 771.075 721.530109 
L 788.9 721.530109 
L 806.725 721.530109 
L 815.6375 712.49124 
L 824.55 703.452371 
L 842.375 703.452371 
L 860.2 703.452371 
L 878.025 703.452371 
L 886.9375 694.413503 
L 895.85 685.374634 
L 913.675 685.374634 
L 922.5875 676.335766 
L 922.5875 658.258029 
L 922.5875 640.180291 
L 913.675 631.141423 
L 904.7625 622.102554 
L 895.85 613.063686 
L 886.9375 622.102554 
L 878.025 631.141423 
L 869.1125 622.102554 
L 860.2 613.063686 
L 842.375 613.063686 
L 824.55 613.063686 
L 815.6375 604.024817 
L 806.725 594.985949 
L 788.9 594.985949 
L 771.075 594.985949 
L 762.1625 585.94708 
L 753.25 576.908211 
L 744.3375 585.94708 
L 735.425 594.985949 
L 717.6 594.985949 
L 708.6875 585.94708 
L 699.775 576.908211 
L 690.8625 585.94708 
L 681.95 594.985949 
L 664.125 594.985949 
L 655.2125 604.024817 
L 646.3 613.063686 
L 628.475 613.063686 
L 619.5625 604.024817 
L 610.65 594.985949 
L 601.7375 604.024817 
L 592.825 613.063686 
L 583.9125 622.102554 
L 592.825 631.141423 
L 601.7375 640.180291 
L 601.7375 658.258029 
L 610.65 667.296897 
L 628.475 667.296897 
L 637.3875 676.335766 
L 646.3 685.374634 
L 664.125 685.374634 
L 673.0375 694.413503 
L 681.95 703.452371 
L 699.775 703.452371 
L 717.6 703.452371 
L 726.5125 712.49124 
z
M 575 703.452371 
L 592.825 703.452371 
L 601.7375 694.413503 
L 592.825 685.374634 
L 575 685.374634 
L 566.0875 694.413503 
z
M 521.525 613.063686 
L 530.4375 604.024817 
L 539.35 594.985949 
L 548.2625 585.94708 
L 557.175 576.908211 
L 566.0875 567.869343 
L 566.0875 549.791606 
L 557.175 540.752737 
L 539.35 540.752737 
L 530.4375 531.713869 
L 521.525 522.675 
L 503.7 522.675 
L 494.7875 531.713869 
L 503.7 540.752737 
L 512.6125 549.791606 
L 512.6125 567.869343 
L 503.7 576.908211 
L 494.7875 585.94708 
L 503.7 594.985949 
L 512.6125 604.024817 
z
M 450.225 576.908211 
L 459.1375 567.869343 
L 450.225 558.830474 
L 441.3125 567.869343 
z
M 182.85 558.830474 
L 200.675 558.830474 
L 209.5875 549.791606 
L 218.5 540.752737 
L 227.4125 531.713869 
L 236.325 522.675 
L 245.2375 513.636131 
L 245.2375 495.558394 
L 245.2375 477.480657 
L 245.2375 459.40292 
L 254.15 450.364051 
L 263.0625 441.325183 
L 263.0625 423.247446 
L 254.15 414.208577 
L 245.2375 405.169709 
L 245.2375 387.091971 
L 254.15 378.053103 
L 271.975 378.053103 
L 289.8 378.053103 
L 298.7125 387.091971 
L 298.7125 405.169709 
L 307.625 414.208577 
L 325.45 414.208577 
L 334.3625 423.247446 
L 343.275 432.286314 
L 361.1 432.286314 
L 378.925 432.286314 
L 387.8375 423.247446 
L 387.8375 405.169709 
L 378.925 396.13084 
L 361.1 396.13084 
L 352.1875 387.091971 
L 352.1875 369.014234 
L 343.275 359.975366 
L 334.3625 350.936497 
L 343.275 341.897629 
L 352.1875 332.85876 
L 361.1 323.819891 
L 370.0125 314.781023 
L 378.925 305.742154 
L 396.75 305.742154 
L 414.575 305.742154 
L 432.4 305.742154 
L 450.225 305.742154 
L 468.05 305.742154 
L 485.875 305.742154 
L 494.7875 296.703286 
L 503.7 287.664417 
L 521.525 287.664417 
L 530.4375 278.625549 
L 539.35 269.58668 
L 557.175 269.58668 
L 575 269.58668 
L 583.9125 260.547812 
L 592.825 251.508943 
L 610.65 251.508943 
L 628.475 251.508943 
L 646.3 251.508943 
L 664.125 251.508943 
L 673.0375 242.470074 
L 681.95 233.431206 
L 690.8625 224.392337 
L 681.95 215.353469 
L 664.125 215.353469 
L 646.3 215.353469 
L 628.475 215.353469 
L 610.65 215.353469 
L 592.825 215.353469 
L 575 215.353469 
L 557.175 215.353469 
L 539.35 215.353469 
L 521.525 215.353469 
L 503.7 215.353469 
L 485.875 215.353469 
L 468.05 215.353469 
L 450.225 215.353469 
L 432.4 215.353469 
L 414.575 215.353469 
L 396.75 215.353469 
L 378.925 215.353469 
L 361.1 215.353469 
L 343.275 215.353469 
L 325.45 215.353469 
L 307.625 215.353469 
L 289.8 215.353469 
L 271.975 215.353469 
L 254.15 215.353469 
L 236.325 215.353469 
L 218.5 215.353469 
L 200.675 215.353469 
L 182.85 215.353469 
L 165.025 215.353469 
L 156.1125 224.392337 
L 147.2 233.431206 
L 138.2875 242.470074 
L 138.2875 260.547812 
L 138.2875 278.625549 
L 138.2875 296.703286 
L 138.2875 314.781023 
L 138.2875 332.85876 
L 138.2875 350.936497 
L 138.2875 369.014234 
L 138.2875 387.091971 
L 138.2875 405.169709 
L 138.2875 423.247446 
L 138.2875 441.325183 
L 138.2875 459.40292 
L 138.2875 477.480657 
L 138.2875 495.558394 
L 138.2875 513.636131 
L 138.2875 531.713869 
L 147.2 540.752737 
L 165.025 540.752737 
L 173.9375 549.791606 
z
M 209.5875 423.247446 
L 218.5 414.208577 
L 236.325 414.208577 
L 245.2375 423.247446 
L 236.325 432.286314 
L 218.5 432.286314 
z
M 361.1 522.675 
L 378.925 522.675 
L 387.8375 513.636131 
L 396.75 504.597263 
L 414.575 504.597263 
L 423.4875 513.636131 
L 432.4 522.675 
L 450.225 522.675 
L 459.1375 513.636131 
L 459.1375 495.558394 
L 468.05 486.519526 
L 476.9625 477.480657 
L 476.9625 459.40292 
L 476.9625 441.325183 
L 476.9625 423.247446 
L 468.05 414.208577 
L 450.225 414.208577 
L 432.4 414.208577 
L 414.575 414.208577 
L 405.6625 423.247446 
L 405.6625 441.325183 
L 396.75 450.364051 
L 378.925 450.364051 
L 370.0125 459.40292 
L 370.0125 477.480657 
L 361.1 486.519526 
L 352.1875 495.558394 
L 352.1875 513.636131 
z
M 271.975 486.519526 
L 280.8875 477.480657 
L 271.975 468.441789 
L 263.0625 477.480657 
z
M 806.725 414.208577 
L 824.55 414.208577 
L 833.4625 405.169709 
L 842.375 396.13084 
L 860.2 396.13084 
L 878.025 396.13084 
L 895.85 396.13084 
L 904.7625 387.091971 
L 913.675 378.053103 
L 922.5875 369.014234 
L 922.5875 350.936497 
L 922.5875 332.85876 
L 922.5875 314.781023 
L 922.5875 296.703286 
L 913.675 287.664417 
L 904.7625 296.703286 
L 895.85 305.742154 
L 878.025 305.742154 
L 869.1125 314.781023 
L 860.2 323.819891 
L 851.2875 332.85876 
L 842.375 341.897629 
L 824.55 341.897629 
L 806.725 341.897629 
L 788.9 341.897629 
L 779.9875 350.936497 
L 779.9875 369.014234 
L 771.075 378.053103 
L 762.1625 387.091971 
L 771.075 396.13084 
L 788.9 396.13084 
L 797.8125 405.169709 
z
M 895.85 251.508943 
L 904.7625 242.470074 
L 895.85 233.431206 
L 886.9375 242.470074 
z
M 717.6 233.431206 
L 735.425 233.431206 
L 744.3375 224.392337 
L 735.425 215.353469 
L 717.6 215.353469 
L 708.6875 224.392337 
z
" clip-path="url(#p507c19d817)" style="fill: #0000ff; fill-opacity: 0.7"/>
    <path d="M 147.2 839.0354 
L 165.025 839.0354 
L 182.85 839.0354 
L 200.675 839.0354 
L 218.5 839.0354 
L 236.325 839.0354 
L 254.15 839.0354 
L 271.975 839.0354 
L 289.8 839.0354 
L 307.625 839.0354 
L 325.45 839.0354 
L 343.275 839.0354 
L 361.1 839.0354 
L 378.925 839.0354 
L 396.75 839.0354 
L 414.575 839.0354 
L 432.4 839.0354 
L 450.225 839.0354 
L 468.05 839.0354 
L 485.875 839.0354 
L 503.7 839.0354 
L 521.525 839.0354 
L 539.35 839.0354 
L 557.175 839.0354 
L 575 839.0354 
L 592.825 839.0354 
L 610.65 839.0354 
L 628.475 839.0354 
L 646.3 839.0354 
L 664.125 839.0354 
L 681.95 839.0354 
L 699.775 839.0354 
L 717.6 839.0354 
L 735.425 839.0354 
L 753.25 839.0354 
L 771.075 839.0354 
L 788.9 839.0354 
L 806.725 839.0354 
L 824.55 839.0354 
L 842.375 839.0354 
L 860.2 839.0354 
L 878.025 839.0354 
L 895.85 839.0354 
L 913.675 839.0354 
L 931.5 839.0354 
L 931.5 820.957663 
L 931.5 802.879926 
L 931.5 784.802188 
L 931.5 766.724451 
L 931.5 748.646714 
L 931.5 730.568977 
L 931.5 712.49124 
L 931.5 694.413503 
L 931.5 676.335766 
L 931.5 658.258029 
L 931.5 640.180291 
L 931.5 622.102554 
L 931.5 604.024817 
L 931.5 585.94708 
L 931.5 567.869343 
L 931.5 549.791606 
L 931.5 531.713869 
L 931.5 513.636131 
L 931.5 495.558394 
L 931.5 477.480657 
L 931.5 459.40292 
L 931.5 441.325183 
L 931.5 423.247446 
L 931.5 405.169709 
L 931.5 387.091971 
L 931.5 369.014234 
L 931.5 350.936497 
L 931.5 332.85876 
L 931.5 314.781023 
L 931.5 296.703286 
L 931.5 278.625549 
L 931.5 260.547812 
L 931.5 242.470074 
L 931.5 224.392337 
L 931.5 206.3146 
L 913.675 206.3146 
L 895.85 206.3146 
L 878.025 206.3146 
L 860.2 206.3146 
L 842.375 206.3146 
L 824.55 206.3146 
L 806.725 206.3146 
L 788.9 206.3146 
L 771.075 206.3146 
L 753.25 206.3146 
L 735.425 206.3146 
L 717.6 206.3146 
L 699.775 206.3146 
L 681.95 206.3146 
L 664.125 206.3146 
L 646.3 206.3146 
L 628.475 206.3146 
L 610.65 206.3146 
L 592.825 206.3146 
L 575 206.3146 
L 557.175 206.3146 
L 539.35 206.3146 
L 521.525 206.3146 
L 503.7 206.3146 
L 485.875 206.3146 
L 468.05 206.3146 
L 450.225 206.3146 
L 432.4 206.3146 
L 414.575 206.3146 
L 396.75 206.3146 
L 378.925 206.3146 
L 361.1 206.3146 
L 343.275 206.3146 
L 325.45 206.3146 
L 307.625 206.3146 
L 289.8 206.3146 
L 271.975 206.3146 
L 254.15 206.3146 
L 236.325 206.3146 
L 218.5 206.3146 
L 200.675 206.3146 
L 182.85 206.3146 
L 165.025 206.3146 
L 147.2 206.3146 
L 129.375 206.3146 
L 129.375 224.392337 
L 129.375 242.470074 
L 129.375 260.547812 
L 129.375 278.625549 
L 129.375 296.703286 
L 129.375 314.781023 
L 129.375 332.85876 
L 129.375 350.936497 
L 129.375 369.014234 
L 129.375 387.091971 
L 129.375 405.169709 
L 129.375 423.247446 
L 129.375 441.325183 
L 129.375 459.40292 
L 129.375 477.480657 
L 129.375 495.558394 
L 129.375 513.636131 
L 129.375 531.713869 
L 129.375 549.791606 
L 129.375 567.869343 
L 129.375 585.94708 
L 129.375 604.024817 
L 129.375 622.102554 
L 129.375 640.180291 
L 129.375 658.258029 
L 129.375 676.335766 
L 129.375 694.413503 
L 129.375 712.49124 
L 129.375 730.568977 
L 129.375 748.646714 
L 129.375 766.724451 
L 129.375 784.802188 
L 129.375 802.879926 
L 129.375 820.957663 
L 129.375 839.0354 
z
M 156.1125 820.957663 
L 147.2 811.918794 
L 138.2875 802.879926 
L 138.2875 784.802188 
L 138.2875 766.724451 
L 138.2875 748.646714 
L 147.2 739.607846 
L 165.025 739.607846 
L 182.85 739.607846 
L 191.7625 730.568977 
L 200.675 721.530109 
L 218.5 721.530109 
L 236.325 721.530109 
L 254.15 721.530109 
L 271.975 721.530109 
L 280.8875 730.568977 
L 289.8 739.607846 
L 307.625 739.607846 
L 325.45 739.607846 
L 343.275 739.607846 
L 361.1 739.607846 
L 378.925 739.607846 
L 396.75 739.607846 
L 414.575 739.607846 
L 423.4875 748.646714 
L 432.4 757.685583 
L 450.225 757.685583 
L 459.1375 766.724451 
L 468.05 775.76332 
L 485.875 775.76332 
L 494.7875 784.802188 
L 503.7 793.841057 
L 521.525 793.841057 
L 530.4375 802.879926 
L 539.35 811.918794 
L 557.175 811.918794 
L 575 811.918794 
L 583.9125 820.957663 
L 575 829.996531 
L 557.175 829.996531 
L 539.35 829.996531 
L 521.525 829.996531 
L 503.7 829.996531 
L 485.875 829.996531 
L 468.05 829.996531 
L 450.225 829.996531 
L 432.4 829.996531 
L 414.575 829.996531 
L 396.75 829.996531 
L 378.925 829.996531 
L 361.1 829.996531 
L 343.275 829.996531 
L 325.45 829.996531 
L 307.625 829.996531 
L 289.8 829.996531 
L 271.975 829.996531 
L 254.15 829.996531 
L 236.325 829.996531 
L 218.5 829.996531 
L 200.675 829.996531 
L 182.85 829.996531 
L 165.025 829.996531 
z
M 815.6375 820.957663 
L 824.55 811.918794 
L 842.375 811.918794 
L 851.2875 802.879926 
L 860.2 793.841057 
L 878.025 793.841057 
L 886.9375 784.802188 
L 886.9375 766.724451 
L 895.85 757.685583 
L 904.7625 748.646714 
L 913.675 739.607846 
L 922.5875 748.646714 
L 922.5875 766.724451 
L 922.5875 784.802188 
L 922.5875 802.879926 
L 913.675 811.918794 
L 904.7625 820.957663 
L 895.85 829.996531 
L 878.025 829.996531 
L 860.2 829.996531 
L 842.375 829.996531 
L 824.55 829.996531 
z
M 762.1625 802.879926 
L 771.075 793.841057 
L 788.9 793.841057 
L 797.8125 802.879926 
L 788.9 811.918794 
L 771.075 811.918794 
z
M 138.2875 712.49124 
L 138.2875 694.413503 
L 147.2 685.374634 
L 165.025 685.374634 
L 173.9375 694.413503 
L 165.025 703.452371 
L 156.1125 712.49124 
L 147.2 721.530109 
z
M 726.5125 712.49124 
L 717.6 703.452371 
L 699.775 703.452371 
L 681.95 703.452371 
L 673.0375 694.413503 
L 664.125 685.374634 
L 646.3 685.374634 
L 637.3875 676.335766 
L 628.475 667.296897 
L 610.65 667.296897 
L 601.7375 658.258029 
L 601.7375 640.180291 
L 592.825 631.141423 
L 583.9125 622.102554 
L 592.825 613.063686 
L 601.7375 604.024817 
L 610.65 594.985949 
L 619.5625 604.024817 
L 628.475 613.063686 
L 646.3 613.063686 
L 655.2125 604.024817 
L 664.125 594.985949 
L 681.95 594.985949 
L 690.8625 585.94708 
L 699.775 576.908211 
L 708.6875 585.94708 
L 717.6 594.985949 
L 735.425 594.985949 
L 744.3375 585.94708 
L 753.25 576.908211 
L 762.1625 585.94708 
L 771.075 594.985949 
L 788.9 594.985949 
L 806.725 594.985949 
L 815.6375 604.024817 
L 824.55 613.063686 
L 842.375 613.063686 
L 860.2 613.063686 
L 869.1125 622.102554 
L 878.025 631.141423 
L 886.9375 622.102554 
L 895.85 613.063686 
L 904.7625 622.102554 
L 913.675 631.141423 
L 922.5875 640.180291 
L 922.5875 658.258029 
L 922.5875 676.335766 
L 913.675 685.374634 
L 895.85 685.374634 
L 886.9375 694.413503 
L 878.025 703.452371 
L 860.2 703.452371 
L 842.375 703.452371 
L 824.55 703.452371 
L 815.6375 712.49124 
L 806.725 721.530109 
L 788.9 721.530109 
L 771.075 721.530109 
L 753.25 721.530109 
L 735.425 721.530109 
z
M 566.0875 694.413503 
L 575 685.374634 
L 592.825 685.374634 
L 601.7375 694.413503 
L 592.825 703.452371 
L 575 703.452371 
z
M 512.6125 604.024817 
L 503.7 594.985949 
L 494.7875 585.94708 
L 503.7 576.908211 
L 512.6125 567.869343 
L 512.6125 549.791606 
L 503.7 540.752737 
L 494.7875 531.713869 
L 503.7 522.675 
L 521.525 522.675 
L 530.4375 531.713869 
L 539.35 540.752737 
L 557.175 540.752737 
L 566.0875 549.791606 
L 566.0875 567.869343 
L 557.175 576.908211 
L 548.2625 585.94708 
L 539.35 594.985949 
L 530.4375 604.024817 
L 521.525 613.063686 
z
M 441.3125 567.869343 
L 450.225 558.830474 
L 459.1375 567.869343 
L 450.225 576.908211 
z
M 173.9375 549.791606 
L 165.025 540.752737 
L 147.2 540.752737 
L 138.2875 531.713869 
L 138.2875 513.636131 
L 138.2875 495.558394 
L 138.2875 477.480657 
L 138.2875 459.40292 
L 138.2875 441.325183 
L 138.2875 423.247446 
L 138.2875 405.169709 
L 138.2875 387.091971 
L 138.2875 369.014234 
L 138.2875 350.936497 
L 138.2875 332.85876 
L 138.2875 314.781023 
L 138.2875 296.703286 
L 138.2875 278.625549 
L 138.2875 260.547812 
L 138.2875 242.470074 
L 147.2 233.431206 
L 156.1125 224.392337 
L 165.025 215.353469 
L 182.85 215.353469 
L 200.675 215.353469 
L 218.5 215.353469 
L 236.325 215.353469 
L 254.15 215.353469 
L 271.975 215.353469 
L 289.8 215.353469 
L 307.625 215.353469 
L 325.45 215.353469 
L 343.275 215.353469 
L 361.1 215.353469 
L 378.925 215.353469 
L 396.75 215.353469 
L 414.575 215.353469 
L 432.4 215.353469 
L 450.225 215.353469 
L 468.05 215.353469 
L 485.875 215.353469 
L 503.7 215.353469 
L 521.525 215.353469 
L 539.35 215.353469 
L 557.175 215.353469 
L 575 215.353469 
L 592.825 215.353469 
L 610.65 215.353469 
L 628.475 215.353469 
L 646.3 215.353469 
L 664.125 215.353469 
L 681.95 215.353469 
L 690.8625 224.392337 
L 681.95 233.431206 
L 673.0375 242.470074 
L 664.125 251.508943 
L 646.3 251.508943 
L 628.475 251.508943 
L 610.65 251.508943 
L 592.825 251.508943 
L 583.9125 260.547812 
L 575 269.58668 
L 557.175 269.58668 
L 539.35 269.58668 
L 530.4375 278.625549 
L 521.525 287.664417 
L 503.7 287.664417 
L 494.7875 296.703286 
L 485.875 305.742154 
L 468.05 305.742154 
L 450.225 305.742154 
L 432.4 305.742154 
L 414.575 305.742154 
L 396.75 305.742154 
L 378.925 305.742154 
L 370.0125 314.781023 
L 361.1 323.819891 
L 352.1875 332.85876 
L 343.275 341.897629 
L 334.3625 350.936497 
L 343.275 359.975366 
L 352.1875 369.014234 
L 352.1875 387.091971 
L 361.1 396.13084 
L 378.925 396.13084 
L 387.8375 405.169709 
L 387.8375 423.247446 
L 378.925 432.286314 
L 361.1 432.286314 
L 343.275 432.286314 
L 334.3625 423.247446 
L 325.45 414.208577 
L 307.625 414.208577 
L 298.7125 405.169709 
L 298.7125 387.091971 
L 289.8 378.053103 
L 271.975 378.053103 
L 254.15 378.053103 
L 245.2375 387.091971 
L 245.2375 405.169709 
L 254.15 414.208577 
L 263.0625 423.247446 
L 263.0625 441.325183 
L 254.15 450.364051 
L 245.2375 459.40292 
L 245.2375 477.480657 
L 245.2375 495.558394 
L 245.2375 513.636131 
L 236.325 522.675 
L 227.4125 531.713869 
L 218.5 540.752737 
L 209.5875 549.791606 
L 200.675 558.830474 
L 182.85 558.830474 
z
M 352.1875 513.636131 
L 352.1875 495.558394 
L 361.1 486.519526 
L 370.0125 477.480657 
L 370.0125 459.40292 
L 378.925 450.364051 
L 396.75 450.364051 
L 405.6625 441.325183 
L 405.6625 423.247446 
L 414.575 414.208577 
L 432.4 414.208577 
L 450.225 414.208577 
L 468.05 414.208577 
L 476.9625 423.247446 
L 476.9625 441.325183 
L 476.9625 459.40292 
L 476.9625 477.480657 
L 468.05 486.519526 
L 459.1375 495.558394 
L 459.1375 513.636131 
L 450.225 522.675 
L 432.4 522.675 
L 423.4875 513.636131 
L 414.575 504.597263 
L 396.75 504.597263 
L 387.8375 513.636131 
L 378.925 522.675 
L 361.1 522.675 
z
M 263.0625 477.480657 
L 271.975 468.441789 
L 280.8875 477.480657 
L 271.975 486.519526 
z
M 797.8125 405.169709 
L 788.9 396.13084 
L 771.075 396.13084 
L 762.1625 387.091971 
L 771.075 378.053103 
L 779.9875 369.014234 
L 779.9875 350.936497 
L 788.9 341.897629 
L 806.725 341.897629 
L 824.55 341.897629 
L 842.375 341.897629 
L 851.2875 332.85876 
L 860.2 323.819891 
L 869.1125 314.781023 
L 878.025 305.742154 
L 895.85 305.742154 
L 904.7625 296.703286 
L 913.675 287.664417 
L 922.5875 296.703286 
L 922.5875 314.781023 
L 922.5875 332.85876 
L 922.5875 350.936497 
L 922.5875 369.014234 
L 913.675 378.053103 
L 904.7625 387.091971 
L 895.85 396.13084 
L 878.025 396.13084 
L 860.2 396.13084 
L 842.375 396.13084 
L 833.4625 405.169709 
L 824.55 414.208577 
L 806.725 414.208577 
z
M 886.9375 242.470074 
L 895.85 233.431206 
L 904.7625 242.470074 
L 895.85 251.508943 
z
M 708.6875 224.392337 
L 717.6 215.353469 
L 735.425 215.353469 
L 744.3375 224.392337 
L 735.425 233.431206 
L 717.6 233.431206 
z
M 218.5 432.286314 
L 236.325 432.286314 
L 245.2375 423.247446 
L 236.325 414.208577 
L 218.5 414.208577 
L 209.5875 423.247446 
z
" clip-path="url(#p507c19d817)" style="fill: #e5e5e5; fill-opacity: 0.7"/>
   </g>
   <g id="matplotlib.axis_1">
    <g id="xtick_1">
     <g id="line2d_1">
      <path d="M 129.375 839.0354 
L 129.375 206.3146 
" clip-path="url(#p507c19d817)" style="fill: none; stroke: #b0b0b0; stroke-opacity: 0.5; stroke-width: 0.8; stroke-linecap: square"/>
     </g>
     <g id="line2d_2">
      <defs>
       <path id="mfc9af262d2" d="M 0 0 
L 0 -10 
" style="stroke: #000000"/>
      </defs>
      <g>
       <use xlink:href="#mfc9af262d2" x="129.375" y="839.0354" style="stroke: #000000"/>
      </g>
     </g>
     <g id="text_1">
      <!-- 70° 53'  -->
      <g transform="translate(101.553828 883.405083) rotate(-30) scale(0.15 -0.15)">
       <defs>
        <path id="DejaVuSans-37" d="M 525 4666 
L 3525 4666 
L 3525 4397 
L 1831 0 
L 1172 0 
L 2766 4134 
L 525 4134 
L 525 4666 
z
" transform="scale(0.015625)"/>
        <path id="DejaVuSans-30" d="M 2034 4250 
Q 1547 4250 1301 3770 
Q 1056 3291 1056 2328 
Q 1056 1369 1301 889 
Q 1547 409 2034 409 
Q 2525 409 2770 889 
Q 3016 1369 3016 2328 
Q 3016 3291 2770 3770 
Q 2525 4250 2034 4250 
z
M 2034 4750 
Q 2819 4750 3233 4129 
Q 3647 3509 3647 2328 
Q 3647 1150 3233 529 
Q 2819 -91 2034 -91 
Q 1250 -91 836 529 
Q 422 1150 422 2328 
Q 422 3509 836 4129 
Q 1250 4750 2034 4750 
z
" transform="scale(0.015625)"/>
        <path id="DejaVuSans-b0" d="M 1600 4347 
Q 1350 4347 1178 4173 
Q 1006 4000 1006 3750 
Q 1006 3503 1178 3333 
Q 1350 3163 1600 3163 
Q 1850 3163 2022 3333 
Q 2194 3503 2194 3750 
Q 2194 3997 2020 4172 
Q 1847 4347 1600 4347 
z
M 1600 4750 
Q 1800 4750 1984 4673 
Q 2169 4597 2303 4453 
Q 2447 4313 2519 4134 
Q 2591 3956 2591 3750 
Q 2591 3338 2302 3052 
Q 2013 2766 1594 2766 
Q 1172 2766 890 3047 
Q 609 3328 609 3750 
Q 609 4169 896 4459 
Q 1184 4750 1600 4750 
z
" transform="scale(0.015625)"/>
        <path id="DejaVuSans-20" transform="scale(0.015625)"/>
        <path id="DejaVuSans-35" d="M 691 4666 
L 3169 4666 
L 3169 4134 
L 1269 4134 
L 1269 2991 
Q 1406 3038 1543 3061 
Q 1681 3084 1819 3084 
Q 2600 3084 3056 2656 
Q 3513 2228 3513 1497 
Q 3513 744 3044 326 
Q 2575 -91 1722 -91 
Q 1428 -91 1123 -41 
Q 819 9 494 109 
L 494 744 
Q 775 591 1075 516 
Q 1375 441 1709 441 
Q 2250 441 2565 725 
Q 2881 1009 2881 1497 
Q 2881 1984 2565 2268 
Q 2250 2553 1709 2553 
Q 1456 2553 1204 2497 
Q 953 2441 691 2322 
L 691 4666 
z
" transform="scale(0.015625)"/>
        <path id="DejaVuSans-33" d="M 2597 2516 
Q 3050 2419 3304 2112 
Q 3559 1806 3559 1356 
Q 3559 666 3084 287 
Q 2609 -91 1734 -91 
Q 1441 -91 1130 -33 
Q 819 25 488 141 
L 488 750 
Q 750 597 1062 519 
Q 1375 441 1716 441 
Q 2309 441 2620 675 
Q 2931 909 2931 1356 
Q 2931 1769 2642 2001 
Q 2353 2234 1838 2234 
L 1294 2234 
L 1294 2753 
L 1863 2753 
Q 2328 2753 2575 2939 
Q 2822 3125 2822 3475 
Q 2822 3834 2567 4026 
Q 2313 4219 1838 4219 
Q 1578 4219 1281 4162 
Q 984 4106 628 3988 
L 628 4550 
Q 988 4650 1302 4700 
Q 1616 4750 1894 4750 
Q 2613 4750 3031 4423 
Q 3450 4097 3450 3541 
Q 3450 3153 3228 2886 
Q 3006 2619 2597 2516 
z
" transform="scale(0.015625)"/>
        <path id="DejaVuSans-27" d="M 1147 4666 
L 1147 2931 
L 616 2931 
L 616 4666 
L 1147 4666 
z
" transform="scale(0.015625)"/>
       </defs>
       <use xlink:href="#DejaVuSans-37"/>
       <use xlink:href="#DejaVuSans-30" x="63.623047"/>
       <use xlink:href="#DejaVuSans-b0" x="127.246094"/>
       <use xlink:href="#DejaVuSans-20" x="177.246094"/>
       <use xlink:href="#DejaVuSans-35" x="209.033203"/>
       <use xlink:href="#DejaVuSans-33" x="272.65625"/>
       <use xlink:href="#DejaVuSans-27" x="336.279297"/>
       <use xlink:href="#DejaVuSans-20" x="363.769531"/>
      </g>
      <!--  23.8" W -->
      <g transform="translate(107.643351 899.284476) rotate(-30) scale(0.15 -0.15)">
       <defs>
        <path id="DejaVuSans-32" d="M 1228 531 
L 3431 531 
L 3431 0 
L 469 0 
L 469 531 
Q 828 903 1448 1529 
Q 2069 2156 2228 2338 
Q 2531 2678 2651 2914 
Q 2772 3150 2772 3378 
Q 2772 3750 2511 3984 
Q 2250 4219 1831 4219 
Q 1534 4219 1204 4116 
Q 875 4013 500 3803 
L 500 4441 
Q 881 4594 1212 4672 
Q 1544 4750 1819 4750 
Q 2544 4750 2975 4387 
Q 3406 4025 3406 3419 
Q 3406 3131 3298 2873 
Q 3191 2616 2906 2266 
Q 2828 2175 2409 1742 
Q 1991 1309 1228 531 
z
" transform="scale(0.015625)"/>
        <path id="DejaVuSans-2e" d="M 684 794 
L 1344 794 
L 1344 0 
L 684 0 
L 684 794 
z
" transform="scale(0.015625)"/>
        <path id="DejaVuSans-38" d="M 2034 2216 
Q 1584 2216 1326 1975 
Q 1069 1734 1069 1313 
Q 1069 891 1326 650 
Q 1584 409 2034 409 
Q 2484 409 2743 651 
Q 3003 894 3003 1313 
Q 3003 1734 2745 1975 
Q 2488 2216 2034 2216 
z
M 1403 2484 
Q 997 2584 770 2862 
Q 544 3141 544 3541 
Q 544 4100 942 4425 
Q 1341 4750 2034 4750 
Q 2731 4750 3128 4425 
Q 3525 4100 3525 3541 
Q 3525 3141 3298 2862 
Q 3072 2584 2669 2484 
Q 3125 2378 3379 2068 
Q 3634 1759 3634 1313 
Q 3634 634 3220 271 
Q 2806 -91 2034 -91 
Q 1263 -91 848 271 
Q 434 634 434 1313 
Q 434 1759 690 2068 
Q 947 2378 1403 2484 
z
M 1172 3481 
Q 1172 3119 1398 2916 
Q 1625 2713 2034 2713 
Q 2441 2713 2670 2916 
Q 2900 3119 2900 3481 
Q 2900 3844 2670 4047 
Q 2441 4250 2034 4250 
Q 1625 4250 1398 4047 
Q 1172 3844 1172 3481 
z
" transform="scale(0.015625)"/>
        <path id="DejaVuSans-22" d="M 1147 4666 
L 1147 2931 
L 616 2931 
L 616 4666 
L 1147 4666 
z
M 2328 4666 
L 2328 2931 
L 1797 2931 
L 1797 4666 
L 2328 4666 
z
" transform="scale(0.015625)"/>
        <path id="DejaVuSans-57" d="M 213 4666 
L 850 4666 
L 1831 722 
L 2809 4666 
L 3519 4666 
L 4500 722 
L 5478 4666 
L 6119 4666 
L 4947 0 
L 4153 0 
L 3169 4050 
L 2175 0 
L 1381 0 
L 213 4666 
z
" transform="scale(0.015625)"/>
       </defs>
       <use xlink:href="#DejaVuSans-20"/>
       <use xlink:href="#DejaVuSans-32" x="31.787109"/>
       <use xlink:href="#DejaVuSans-33" x="95.410156"/>
       <use xlink:href="#DejaVuSans-2e" x="159.033203"/>
       <use xlink:href="#DejaVuSans-38" x="190.820312"/>
       <use xlink:href="#DejaVuSans-22" x="254.443359"/>
       <use xlink:href="#DejaVuSans-20" x="300.439453"/>
       <use xlink:href="#DejaVuSans-57" x="332.226562"/>
      </g>
     </g>
    </g>
    <g id="xtick_2">
     <g id="line2d_3">
      <path d="M 931.5 839.0354 
L 931.5 206.3146 
" clip-path="url(#p507c19d817)" style="fill: none; stroke: #b0b0b0; stroke-opacity: 0.5; stroke-width: 0.8; stroke-linecap: square"/>
     </g>
     <g id="line2d_4">
      <g>
       <use xlink:href="#mfc9af262d2" x="931.5" y="839.0354" style="stroke: #000000"/>
      </g>
     </g>
     <g id="text_2">
      <!-- 70° 52'  -->
      <g transform="translate(903.678828 883.405083) rotate(-30) scale(0.15 -0.15)">
       <use xlink:href="#DejaVuSans-37"/>
       <use xlink:href="#DejaVuSans-30" x="63.623047"/>
       <use xlink:href="#DejaVuSans-b0" x="127.246094"/>
       <use xlink:href="#DejaVuSans-20" x="177.246094"/>
       <use xlink:href="#DejaVuSans-35" x="209.033203"/>
       <use xlink:href="#DejaVuSans-32" x="272.65625"/>
       <use xlink:href="#DejaVuSans-27" x="336.279297"/>
       <use xlink:href="#DejaVuSans-20" x="363.769531"/>
      </g>
      <!--  33.6" W -->
      <g transform="translate(909.768351 899.284476) rotate(-30) scale(0.15 -0.15)">
       <defs>
        <path id="DejaVuSans-36" d="M 2113 2584 
Q 1688 2584 1439 2293 
Q 1191 2003 1191 1497 
Q 1191 994 1439 701 
Q 1688 409 2113 409 
Q 2538 409 2786 701 
Q 3034 994 3034 1497 
Q 3034 2003 2786 2293 
Q 2538 2584 2113 2584 
z
M 3366 4563 
L 3366 3988 
Q 3128 4100 2886 4159 
Q 2644 4219 2406 4219 
Q 1781 4219 1451 3797 
Q 1122 3375 1075 2522 
Q 1259 2794 1537 2939 
Q 1816 3084 2150 3084 
Q 2853 3084 3261 2657 
Q 3669 2231 3669 1497 
Q 3669 778 3244 343 
Q 2819 -91 2113 -91 
Q 1303 -91 875 529 
Q 447 1150 447 2328 
Q 447 3434 972 4092 
Q 1497 4750 2381 4750 
Q 2619 4750 2861 4703 
Q 3103 4656 3366 4563 
z
" transform="scale(0.015625)"/>
       </defs>
       <use xlink:href="#DejaVuSans-20"/>
       <use xlink:href="#DejaVuSans-33" x="31.787109"/>
       <use xlink:href="#DejaVuSans-33" x="95.410156"/>
       <use xlink:href="#DejaVuSans-2e" x="159.033203"/>
       <use xlink:href="#DejaVuSans-36" x="190.820312"/>
       <use xlink:href="#DejaVuSans-22" x="254.443359"/>
       <use xlink:href="#DejaVuSans-20" x="300.439453"/>
       <use xlink:href="#DejaVuSans-57" x="332.226562"/>
      </g>
     </g>
    </g>
    <g id="text_3">
     <!-- Longitude -->
     <g transform="translate(493.133203 917.383726) scale(0.15 -0.15)">
      <defs>
       <path id="DejaVuSans-4c" d="M 628 4666 
L 1259 4666 
L 1259 531 
L 3531 531 
L 3531 0 
L 628 0 
L 628 4666 
z
" transform="scale(0.015625)"/>
       <path id="DejaVuSans-6f" d="M 1959 3097 
Q 1497 3097 1228 2736 
Q 959 2375 959 1747 
Q 959 1119 1226 758 
Q 1494 397 1959 397 
Q 2419 397 2687 759 
Q 2956 1122 2956 1747 
Q 2956 2369 2687 2733 
Q 2419 3097 1959 3097 
z
M 1959 3584 
Q 2709 3584 3137 3096 
Q 3566 2609 3566 1747 
Q 3566 888 3137 398 
Q 2709 -91 1959 -91 
Q 1206 -91 779 398 
Q 353 888 353 1747 
Q 353 2609 779 3096 
Q 1206 3584 1959 3584 
z
" transform="scale(0.015625)"/>
       <path id="DejaVuSans-6e" d="M 3513 2113 
L 3513 0 
L 2938 0 
L 2938 2094 
Q 2938 2591 2744 2837 
Q 2550 3084 2163 3084 
Q 1697 3084 1428 2787 
Q 1159 2491 1159 1978 
L 1159 0 
L 581 0 
L 581 3500 
L 1159 3500 
L 1159 2956 
Q 1366 3272 1645 3428 
Q 1925 3584 2291 3584 
Q 2894 3584 3203 3211 
Q 3513 2838 3513 2113 
z
" transform="scale(0.015625)"/>
       <path id="DejaVuSans-67" d="M 2906 1791 
Q 2906 2416 2648 2759 
Q 2391 3103 1925 3103 
Q 1463 3103 1205 2759 
Q 947 2416 947 1791 
Q 947 1169 1205 825 
Q 1463 481 1925 481 
Q 2391 481 2648 825 
Q 2906 1169 2906 1791 
z
M 3481 434 
Q 3481 -459 3084 -895 
Q 2688 -1331 1869 -1331 
Q 1566 -1331 1297 -1286 
Q 1028 -1241 775 -1147 
L 775 -588 
Q 1028 -725 1275 -790 
Q 1522 -856 1778 -856 
Q 2344 -856 2625 -561 
Q 2906 -266 2906 331 
L 2906 616 
Q 2728 306 2450 153 
Q 2172 0 1784 0 
Q 1141 0 747 490 
Q 353 981 353 1791 
Q 353 2603 747 3093 
Q 1141 3584 1784 3584 
Q 2172 3584 2450 3431 
Q 2728 3278 2906 2969 
L 2906 3500 
L 3481 3500 
L 3481 434 
z
" transform="scale(0.015625)"/>
       <path id="DejaVuSans-69" d="M 603 3500 
L 1178 3500 
L 1178 0 
L 603 0 
L 603 3500 
z
M 603 4863 
L 1178 4863 
L 1178 4134 
L 603 4134 
L 603 4863 
z
" transform="scale(0.015625)"/>
       <path id="DejaVuSans-74" d="M 1172 4494 
L 1172 3500 
L 2356 3500 
L 2356 3053 
L 1172 3053 
L 1172 1153 
Q 1172 725 1289 603 
Q 1406 481 1766 481 
L 2356 481 
L 2356 0 
L 1766 0 
Q 1100 0 847 248 
Q 594 497 594 1153 
L 594 3053 
L 172 3053 
L 172 3500 
L 594 3500 
L 594 4494 
L 1172 4494 
z
" transform="scale(0.015625)"/>
       <path id="DejaVuSans-75" d="M 544 1381 
L 544 3500 
L 1119 3500 
L 1119 1403 
Q 1119 906 1312 657 
Q 1506 409 1894 409 
Q 2359 409 2629 706 
Q 2900 1003 2900 1516 
L 2900 3500 
L 3475 3500 
L 3475 0 
L 2900 0 
L 2900 538 
Q 2691 219 2414 64 
Q 2138 -91 1772 -91 
Q 1169 -91 856 284 
Q 544 659 544 1381 
z
M 1991 3584 
L 1991 3584 
z
" transform="scale(0.015625)"/>
       <path id="DejaVuSans-64" d="M 2906 2969 
L 2906 4863 
L 3481 4863 
L 3481 0 
L 2906 0 
L 2906 525 
Q 2725 213 2448 61 
Q 2172 -91 1784 -91 
Q 1150 -91 751 415 
Q 353 922 353 1747 
Q 353 2572 751 3078 
Q 1150 3584 1784 3584 
Q 2172 3584 2448 3432 
Q 2725 3281 2906 2969 
z
M 947 1747 
Q 947 1113 1208 752 
Q 1469 391 1925 391 
Q 2381 391 2643 752 
Q 2906 1113 2906 1747 
Q 2906 2381 2643 2742 
Q 2381 3103 1925 3103 
Q 1469 3103 1208 2742 
Q 947 2381 947 1747 
z
" transform="scale(0.015625)"/>
       <path id="DejaVuSans-65" d="M 3597 1894 
L 3597 1613 
L 953 1613 
Q 991 1019 1311 708 
Q 1631 397 2203 397 
Q 2534 397 2845 478 
Q 3156 559 3463 722 
L 3463 178 
Q 3153 47 2828 -22 
Q 2503 -91 2169 -91 
Q 1331 -91 842 396 
Q 353 884 353 1716 
Q 353 2575 817 3079 
Q 1281 3584 2069 3584 
Q 2775 3584 3186 3129 
Q 3597 2675 3597 1894 
z
M 3022 2063 
Q 3016 2534 2758 2815 
Q 2500 3097 2075 3097 
Q 1594 3097 1305 2825 
Q 1016 2553 972 2059 
L 3022 2063 
z
" transform="scale(0.015625)"/>
      </defs>
      <use xlink:href="#DejaVuSans-4c"/>
      <use xlink:href="#DejaVuSans-6f" x="53.962891"/>
      <use xlink:href="#DejaVuSans-6e" x="115.144531"/>
      <use xlink:href="#DejaVuSans-67" x="178.523438"/>
      <use xlink:href="#DejaVuSans-69" x="242"/>
      <use xlink:href="#DejaVuSans-74" x="269.783203"/>
      <use xlink:href="#DejaVuSans-75" x="308.992188"/>
      <use xlink:href="#DejaVuSans-64" x="372.371094"/>
      <use xlink:href="#DejaVuSans-65" x="435.847656"/>
     </g>
    </g>
   </g>
   <g id="matplotlib.axis_2">
    <g id="ytick_1">
     <g id="line2d_5">
      <path d="M 129.375 839.0354 
L 931.5 839.0354 
" clip-path="url(#p507c19d817)" style="fill: none; stroke: #b0b0b0; stroke-opacity: 0.5; stroke-width: 0.8; stroke-linecap: square"/>
     </g>
     <g id="line2d_6">
      <defs>
       <path id="mec04dbc0a5" d="M 0 0 
L 10 0 
" style="stroke: #000000"/>
      </defs>
      <g>
       <use xlink:href="#mec04dbc0a5" x="129.375" y="839.0354" style="stroke: #000000"/>
      </g>
     </g>
     <g id="text_4">
      <!-- 42° 20'  -->
      <g transform="translate(64.533829 865.614653) rotate(-30) scale(0.15 -0.15)">
       <defs>
        <path id="DejaVuSans-34" d="M 2419 4116 
L 825 1625 
L 2419 1625 
L 2419 4116 
z
M 2253 4666 
L 3047 4666 
L 3047 1625 
L 3713 1625 
L 3713 1100 
L 3047 1100 
L 3047 0 
L 2419 0 
L 2419 1100 
L 313 1100 
L 313 1709 
L 2253 4666 
z
" transform="scale(0.015625)"/>
       </defs>
       <use xlink:href="#DejaVuSans-34"/>
       <use xlink:href="#DejaVuSans-32" x="63.623047"/>
       <use xlink:href="#DejaVuSans-b0" x="127.246094"/>
       <use xlink:href="#DejaVuSans-20" x="177.246094"/>
       <use xlink:href="#DejaVuSans-32" x="209.033203"/>
       <use xlink:href="#DejaVuSans-30" x="272.65625"/>
       <use xlink:href="#DejaVuSans-27" x="336.279297"/>
       <use xlink:href="#DejaVuSans-20" x="363.769531"/>
      </g>
      <!--  38.4" N -->
      <g transform="translate(71.440324 881.022367) rotate(-30) scale(0.15 -0.15)">
       <defs>
        <path id="DejaVuSans-4e" d="M 628 4666 
L 1478 4666 
L 3547 763 
L 3547 4666 
L 4159 4666 
L 4159 0 
L 3309 0 
L 1241 3903 
L 1241 0 
L 628 0 
L 628 4666 
z
" transform="scale(0.015625)"/>
       </defs>
       <use xlink:href="#DejaVuSans-20"/>
       <use xlink:href="#DejaVuSans-33" x="31.787109"/>
       <use xlink:href="#DejaVuSans-38" x="95.410156"/>
       <use xlink:href="#DejaVuSans-2e" x="159.033203"/>
       <use xlink:href="#DejaVuSans-34" x="190.820312"/>
       <use xlink:href="#DejaVuSans-22" x="254.443359"/>
       <use xlink:href="#DejaVuSans-20" x="300.439453"/>
       <use xlink:href="#DejaVuSans-4e" x="332.226562"/>
      </g>
     </g>
    </g>
    <g id="ytick_2">
     <g id="line2d_7">
      <path d="M 129.375 206.3146 
L 931.5 206.3146 
" clip-path="url(#p507c19d817)" style="fill: none; stroke: #b0b0b0; stroke-opacity: 0.5; stroke-width: 0.8; stroke-linecap: square"/>
     </g>
     <g id="line2d_8">
      <g>
       <use xlink:href="#mec04dbc0a5" x="129.375" y="206.3146" style="stroke: #000000"/>
      </g>
     </g>
     <g id="text_5">
      <!-- 42° 21'  -->
      <g transform="translate(64.533829 232.893854) rotate(-30) scale(0.15 -0.15)">
       <defs>
        <path id="DejaVuSans-31" d="M 794 531 
L 1825 531 
L 1825 4091 
L 703 3866 
L 703 4441 
L 1819 4666 
L 2450 4666 
L 2450 531 
L 3481 531 
L 3481 0 
L 794 0 
L 794 531 
z
" transform="scale(0.015625)"/>
       </defs>
       <use xlink:href="#DejaVuSans-34"/>
       <use xlink:href="#DejaVuSans-32" x="63.623047"/>
       <use xlink:href="#DejaVuSans-b0" x="127.246094"/>
       <use xlink:href="#DejaVuSans-20" x="177.246094"/>
       <use xlink:href="#DejaVuSans-32" x="209.033203"/>
       <use xlink:href="#DejaVuSans-31" x="272.65625"/>
       <use xlink:href="#DejaVuSans-27" x="336.279297"/>
       <use xlink:href="#DejaVuSans-20" x="363.769531"/>
      </g>
      <!--  18.0" N -->
      <g transform="translate(71.440324 248.301567) rotate(-30) scale(0.15 -0.15)">
       <use xlink:href="#DejaVuSans-20"/>
       <use xlink:href="#DejaVuSans-31" x="31.787109"/>
       <use xlink:href="#DejaVuSans-38" x="95.410156"/>
       <use xlink:href="#DejaVuSans-2e" x="159.033203"/>
       <use xlink:href="#DejaVuSans-30" x="190.820312"/>
       <use xlink:href="#DejaVuSans-22" x="254.443359"/>
       <use xlink:href="#DejaVuSans-20" x="300.439453"/>
       <use xlink:href="#DejaVuSans-4e" x="332.226562"/>
      </g>
     </g>
    </g>
    <g id="text_6">
     <!-- Latitude -->
     <g transform="translate(50.223605 553.543359) rotate(-90) scale(0.15 -0.15)">
      <defs>
       <path id="DejaVuSans-61" d="M 2194 1759 
Q 1497 1759 1228 1600 
Q 959 1441 959 1056 
Q 959 750 1161 570 
Q 1363 391 1709 391 
Q 2188 391 2477 730 
Q 2766 1069 2766 1631 
L 2766 1759 
L 2194 1759 
z
M 3341 1997 
L 3341 0 
L 2766 0 
L 2766 531 
Q 2569 213 2275 61 
Q 1981 -91 1556 -91 
Q 1019 -91 701 211 
Q 384 513 384 1019 
Q 384 1609 779 1909 
Q 1175 2209 1959 2209 
L 2766 2209 
L 2766 2266 
Q 2766 2663 2505 2880 
Q 2244 3097 1772 3097 
Q 1472 3097 1187 3025 
Q 903 2953 641 2809 
L 641 3341 
Q 956 3463 1253 3523 
Q 1550 3584 1831 3584 
Q 2591 3584 2966 3190 
Q 3341 2797 3341 1997 
z
" transform="scale(0.015625)"/>
      </defs>
      <use xlink:href="#DejaVuSans-4c"/>
      <use xlink:href="#DejaVuSans-61" x="55.712891"/>
      <use xlink:href="#DejaVuSans-74" x="116.992188"/>
      <use xlink:href="#DejaVuSans-69" x="156.201172"/>
      <use xlink:href="#DejaVuSans-74" x="183.984375"/>
      <use xlink:href="#DejaVuSans-75" x="223.193359"/>
      <use xlink:href="#DejaVuSans-64" x="286.572266"/>
      <use xlink:href="#DejaVuSans-65" x="350.048828"/>
     </g>
    </g>
   </g>
   <g id="patch_3">
    <path d="M 129.375 839.0354 
L 129.375 206.3146 
L 931.5 206.3146 
L 931.5 839.0354 
L 129.375 839.0354 
z
" style="fill: none; stroke: #000000; stroke-width: 0.8; stroke-linejoin: miter; stroke-linecap: square"/>
   </g>
   <g id="text_7">
    <!-- East of Boston Harbor Bathymetry -->
    <g transform="translate(358.596875 200.3146) scale(0.2 -0.2)">
     <defs>
      <path id="DejaVuSans-45" d="M 628 4666 
L 3578 4666 
L 3578 4134 
L 1259 4134 
L 1259 2753 
L 3481 2753 
L 3481 2222 
L 1259 2222 
L 1259 531 
L 3634 531 
L 3634 0 
L 628 0 
L 628 4666 
z
" transform="scale(0.015625)"/>
      <path id="DejaVuSans-73" d="M 2834 3397 
L 2834 2853 
Q 2591 2978 2328 3040 
Q 2066 3103 1784 3103 
Q 1356 3103 1142 2972 
Q 928 2841 928 2578 
Q 928 2378 1081 2264 
Q 1234 2150 1697 2047 
L 1894 2003 
Q 2506 1872 2764 1633 
Q 3022 1394 3022 966 
Q 3022 478 2636 193 
Q 2250 -91 1575 -91 
Q 1294 -91 989 -36 
Q 684 19 347 128 
L 347 722 
Q 666 556 975 473 
Q 1284 391 1588 391 
Q 1994 391 2212 530 
Q 2431 669 2431 922 
Q 2431 1156 2273 1281 
Q 2116 1406 1581 1522 
L 1381 1569 
Q 847 1681 609 1914 
Q 372 2147 372 2553 
Q 372 3047 722 3315 
Q 1072 3584 1716 3584 
Q 2034 3584 2315 3537 
Q 2597 3491 2834 3397 
z
" transform="scale(0.015625)"/>
      <path id="DejaVuSans-66" d="M 2375 4863 
L 2375 4384 
L 1825 4384 
Q 1516 4384 1395 4259 
Q 1275 4134 1275 3809 
L 1275 3500 
L 2222 3500 
L 2222 3053 
L 1275 3053 
L 1275 0 
L 697 0 
L 697 3053 
L 147 3053 
L 147 3500 
L 697 3500 
L 697 3744 
Q 697 4328 969 4595 
Q 1241 4863 1831 4863 
L 2375 4863 
z
" transform="scale(0.015625)"/>
      <path id="DejaVuSans-42" d="M 1259 2228 
L 1259 519 
L 2272 519 
Q 2781 519 3026 730 
Q 3272 941 3272 1375 
Q 3272 1813 3026 2020 
Q 2781 2228 2272 2228 
L 1259 2228 
z
M 1259 4147 
L 1259 2741 
L 2194 2741 
Q 2656 2741 2882 2914 
Q 3109 3088 3109 3444 
Q 3109 3797 2882 3972 
Q 2656 4147 2194 4147 
L 1259 4147 
z
M 628 4666 
L 2241 4666 
Q 2963 4666 3353 4366 
Q 3744 4066 3744 3513 
Q 3744 3084 3544 2831 
Q 3344 2578 2956 2516 
Q 3422 2416 3680 2098 
Q 3938 1781 3938 1306 
Q 3938 681 3513 340 
Q 3088 0 2303 0 
L 628 0 
L 628 4666 
z
" transform="scale(0.015625)"/>
      <path id="DejaVuSans-48" d="M 628 4666 
L 1259 4666 
L 1259 2753 
L 3553 2753 
L 3553 4666 
L 4184 4666 
L 4184 0 
L 3553 0 
L 3553 2222 
L 1259 2222 
L 1259 0 
L 628 0 
L 628 4666 
z
" transform="scale(0.015625)"/>
      <path id="DejaVuSans-72" d="M 2631 2963 
Q 2534 3019 2420 3045 
Q 2306 3072 2169 3072 
Q 1681 3072 1420 2755 
Q 1159 2438 1159 1844 
L 1159 0 
L 581 0 
L 581 3500 
L 1159 3500 
L 1159 2956 
Q 1341 3275 1631 3429 
Q 1922 3584 2338 3584 
Q 2397 3584 2469 3576 
Q 2541 3569 2628 3553 
L 2631 2963 
z
" transform="scale(0.015625)"/>
      <path id="DejaVuSans-62" d="M 3116 1747 
Q 3116 2381 2855 2742 
Q 2594 3103 2138 3103 
Q 1681 3103 1420 2742 
Q 1159 2381 1159 1747 
Q 1159 1113 1420 752 
Q 1681 391 2138 391 
Q 2594 391 2855 752 
Q 3116 1113 3116 1747 
z
M 1159 2969 
Q 1341 3281 1617 3432 
Q 1894 3584 2278 3584 
Q 2916 3584 3314 3078 
Q 3713 2572 3713 1747 
Q 3713 922 3314 415 
Q 2916 -91 2278 -91 
Q 1894 -91 1617 61 
Q 1341 213 1159 525 
L 1159 0 
L 581 0 
L 581 4863 
L 1159 4863 
L 1159 2969 
z
" transform="scale(0.015625)"/>
      <path id="DejaVuSans-68" d="M 3513 2113 
L 3513 0 
L 2938 0 
L 2938 2094 
Q 2938 2591 2744 2837 
Q 2550 3084 2163 3084 
Q 1697 3084 1428 2787 
Q 1159 2491 1159 1978 
L 1159 0 
L 581 0 
L 581 4863 
L 1159 4863 
L 1159 2956 
Q 1366 3272 1645 3428 
Q 1925 3584 2291 3584 
Q 2894 3584 3203 3211 
Q 3513 2838 3513 2113 
z
" transform="scale(0.015625)"/>
      <path id="DejaVuSans-79" d="M 2059 -325 
Q 1816 -950 1584 -1140 
Q 1353 -1331 966 -1331 
L 506 -1331 
L 506 -850 
L 844 -850 
Q 1081 -850 1212 -737 
Q 1344 -625 1503 -206 
L 1606 56 
L 191 3500 
L 800 3500 
L 1894 763 
L 2988 3500 
L 3597 3500 
L 2059 -325 
z
" transform="scale(0.015625)"/>
      <path id="DejaVuSans-6d" d="M 3328 2828 
Q 3544 3216 3844 3400 
Q 4144 3584 4550 3584 
Q 5097 3584 5394 3201 
Q 5691 2819 5691 2113 
L 5691 0 
L 5113 0 
L 5113 2094 
Q 5113 2597 4934 2840 
Q 4756 3084 4391 3084 
Q 3944 3084 3684 2787 
Q 3425 2491 3425 1978 
L 3425 0 
L 2847 0 
L 2847 2094 
Q 2847 2600 2669 2842 
Q 2491 3084 2119 3084 
Q 1678 3084 1418 2786 
Q 1159 2488 1159 1978 
L 1159 0 
L 581 0 
L 581 3500 
L 1159 3500 
L 1159 2956 
Q 1356 3278 1631 3431 
Q 1906 3584 2284 3584 
Q 2666 3584 2933 3390 
Q 3200 3197 3328 2828 
z
" transform="scale(0.015625)"/>
     </defs>
     <use xlink:href="#DejaVuSans-45"/>
     <use xlink:href="#DejaVuSans-61" x="63.183594"/>
     <use xlink:href="#DejaVuSans-73" x="124.462891"/>
     <use xlink:href="#DejaVuSans-74" x="176.5625"/>
     <use xlink:href="#DejaVuSans-20" x="215.771484"/>
     <use xlink:href="#DejaVuSans-6f" x="247.558594"/>
     <use xlink:href="#DejaVuSans-66" x="308.740234"/>
     <use xlink:href="#DejaVuSans-20" x="343.945312"/>
     <use xlink:href="#DejaVuSans-42" x="375.732422"/>
     <use xlink:href="#DejaVuSans-6f" x="444.335938"/>
     <use xlink:href="#DejaVuSans-73" x="505.517578"/>
     <use xlink:href="#DejaVuSans-74" x="557.617188"/>
     <use xlink:href="#DejaVuSans-6f" x="596.826172"/>
     <use xlink:href="#DejaVuSans-6e" x="658.007812"/>
     <use xlink:href="#DejaVuSans-20" x="721.386719"/>
     <use xlink:href="#DejaVuSans-48" x="753.173828"/>
     <use xlink:href="#DejaVuSans-61" x="828.369141"/>
     <use xlink:href="#DejaVuSans-72" x="889.648438"/>
     <use xlink:href="#DejaVuSans-62" x="930.761719"/>
     <use xlink:href="#DejaVuSans-6f" x="994.238281"/>
     <use xlink:href="#DejaVuSans-72" x="1055.419922"/>
     <use xlink:href="#DejaVuSans-20" x="1096.533203"/>
     <use xlink:href="#DejaVuSans-42" x="1128.320312"/>
     <use xlink:href="#DejaVuSans-61" x="1196.923828"/>
     <use xlink:href="#DejaVuSans-74" x="1258.203125"/>
     <use xlink:href="#DejaVuSans-68" x="1297.412109"/>
     <use xlink:href="#DejaVuSans-79" x="1360.791016"/>
     <use xlink:href="#DejaVuSans-6d" x="1419.970703"/>
     <use xlink:href="#DejaVuSans-65" x="1517.382812"/>
     <use xlink:href="#DejaVuSans-74" x="1578.90625"/>
     <use xlink:href="#DejaVuSans-72" x="1618.115234"/>
     <use xlink:href="#DejaVuSans-79" x="1659.228516"/>
    </g>
   </g>
  </g>
 </g>
 <defs>
  <clipPath id="p507c19d817">
   <path d="M 129.375 839.0354 
L 129.375 206.3146 
L 931.5 206.3146 
L 931.5 839.0354 
L 129.375 839.0354 
"/>
  </clipPath>
 </defs>
</svg>
