<?xml version="1.0" encoding="utf-8" standalone="no"?>
<!DOCTYPE svg PUBLIC "-//W3C//DTD SVG 1.1//EN"
  "http://www.w3.org/Graphics/SVG/1.1/DTD/svg11.dtd">
<svg xmlns:xlink="http://www.w3.org/1999/xlink" width="360pt" height="360pt" viewBox="0 0 360 360" xmlns="http://www.w3.org/2000/svg" version="1.1">
 <metadata>
  <rdf:RDF xmlns:dc="http://purl.org/dc/elements/1.1/" xmlns:cc="http://creativecommons.org/ns#" xmlns:rdf="http://www.w3.org/1999/02/22-rdf-syntax-ns#">
   <cc:Work>
    <dc:type rdf:resource="http://purl.org/dc/dcmitype/StillImage"/>
    <dc:date>2024-06-03T15:22:04.157553</dc:date>
    <dc:format>image/svg+xml</dc:format>
    <dc:creator>
     <cc:Agent>
      <dc:title>Matplotlib v3.9.0, https://matplotlib.org/</dc:title>
     </cc:Agent>
    </dc:creator>
   </cc:Work>
  </rdf:RDF>
 </metadata>
 <defs>
  <style type="text/css">*{stroke-linejoin: round; stroke-linecap: butt}</style>
 </defs>
 <g id="figure_1">
  <g id="patch_1">
   <path d="M 0 360 
L 360 360 
L 360 0 
L 0 0 
z
" style="fill: #ffffff"/>
  </g>
  <g id="axes_1">
   <g id="patch_2">
    <path d="M 45 320.4 
L 324 320.4 
L 324 43.2 
L 45 43.2 
z
" style="fill: #ffffff"/>
   </g>
   <g id="matplotlib.axis_1">
    <g id="xtick_1">
     <g id="line2d_1">
      <path d="M 57.681818 320.4 
L 57.681818 43.2 
" clip-path="url(#p68f921489c)" style="fill: none; stroke: #cccccc; stroke-width: 0.8; stroke-linecap: round"/>
     </g>
     <g id="text_1">
      <!-- 0.000 -->
      <g style="fill: #262626" transform="translate(45.170881 334.557813) scale(0.1 -0.1)">
       <defs>
        <path id="ArialMT-30" d="M 266 2259 
Q 266 3072 433 3567 
Q 600 4063 929 4331 
Q 1259 4600 1759 4600 
Q 2128 4600 2406 4451 
Q 2684 4303 2865 4023 
Q 3047 3744 3150 3342 
Q 3253 2941 3253 2259 
Q 3253 1453 3087 958 
Q 2922 463 2592 192 
Q 2263 -78 1759 -78 
Q 1097 -78 719 397 
Q 266 969 266 2259 
z
M 844 2259 
Q 844 1131 1108 757 
Q 1372 384 1759 384 
Q 2147 384 2411 759 
Q 2675 1134 2675 2259 
Q 2675 3391 2411 3762 
Q 2147 4134 1753 4134 
Q 1366 4134 1134 3806 
Q 844 3388 844 2259 
z
" transform="scale(0.015625)"/>
        <path id="ArialMT-2e" d="M 581 0 
L 581 641 
L 1222 641 
L 1222 0 
L 581 0 
z
" transform="scale(0.015625)"/>
       </defs>
       <use xlink:href="#ArialMT-30"/>
       <use xlink:href="#ArialMT-2e" x="55.615234"/>
       <use xlink:href="#ArialMT-30" x="83.398438"/>
       <use xlink:href="#ArialMT-30" x="139.013672"/>
       <use xlink:href="#ArialMT-30" x="194.628906"/>
      </g>
     </g>
    </g>
    <g id="xtick_2">
     <g id="line2d_2">
      <path d="M 184.5 320.4 
L 184.5 43.2 
" clip-path="url(#p68f921489c)" style="fill: none; stroke: #cccccc; stroke-width: 0.8; stroke-linecap: round"/>
     </g>
     <g id="text_2">
      <!-- 0.504 -->
      <g style="fill: #262626" transform="translate(171.989062 334.557813) scale(0.1 -0.1)">
       <defs>
        <path id="ArialMT-35" d="M 266 1200 
L 856 1250 
Q 922 819 1161 601 
Q 1400 384 1738 384 
Q 2144 384 2425 690 
Q 2706 997 2706 1503 
Q 2706 1984 2436 2262 
Q 2166 2541 1728 2541 
Q 1456 2541 1237 2417 
Q 1019 2294 894 2097 
L 366 2166 
L 809 4519 
L 3088 4519 
L 3088 3981 
L 1259 3981 
L 1013 2750 
Q 1425 3038 1878 3038 
Q 2478 3038 2890 2622 
Q 3303 2206 3303 1553 
Q 3303 931 2941 478 
Q 2500 -78 1738 -78 
Q 1113 -78 717 272 
Q 322 622 266 1200 
z
" transform="scale(0.015625)"/>
        <path id="ArialMT-34" d="M 2069 0 
L 2069 1097 
L 81 1097 
L 81 1613 
L 2172 4581 
L 2631 4581 
L 2631 1613 
L 3250 1613 
L 3250 1097 
L 2631 1097 
L 2631 0 
L 2069 0 
z
M 2069 1613 
L 2069 3678 
L 634 1613 
L 2069 1613 
z
" transform="scale(0.015625)"/>
       </defs>
       <use xlink:href="#ArialMT-30"/>
       <use xlink:href="#ArialMT-2e" x="55.615234"/>
       <use xlink:href="#ArialMT-35" x="83.398438"/>
       <use xlink:href="#ArialMT-30" x="139.013672"/>
       <use xlink:href="#ArialMT-34" x="194.628906"/>
      </g>
     </g>
    </g>
   </g>
   <g id="matplotlib.axis_2">
    <g id="ytick_1">
     <g id="line2d_3">
      <path d="M 45 181.8 
L 324 181.8 
" clip-path="url(#p68f921489c)" style="fill: none; stroke: #cccccc; stroke-width: 0.8; stroke-linecap: round"/>
     </g>
     <g id="text_3">
      <!-- 0.000 -->
      <g style="fill: #262626" transform="translate(12.978125 185.378906) scale(0.1 -0.1)">
       <use xlink:href="#ArialMT-30"/>
       <use xlink:href="#ArialMT-2e" x="55.615234"/>
       <use xlink:href="#ArialMT-30" x="83.398438"/>
       <use xlink:href="#ArialMT-30" x="139.013672"/>
       <use xlink:href="#ArialMT-30" x="194.628906"/>
      </g>
     </g>
    </g>
   </g>
   <g id="PathCollection_1">
    <defs>
     <path id="maf0824c8bd" d="M -5.923207 2.223399 
L -5.923207 0.207484 
C -5.923207 0.092884 -5.830324 -0 -5.715723 -0 
C -5.601123 -0 -5.508239 0.092884 -5.508239 0.207484 
L -5.508239 2.218212 
L -5.300709 2.218212 
L -5.300709 1.946361 
C -5.300709 1.890249 -5.277978 1.836533 -5.237726 1.797457 
C -5.197475 1.758381 -5.142929 1.737632 -5.087001 1.73897 
L -2.471273 1.817675 
C -2.106424 1.828649 -1.820649 2.123161 -1.820649 2.488171 
C -1.820649 2.853182 -2.106424 3.147694 -2.471273 3.158667 
L -3.230272 3.181491 
L -2.991712 7.490726 
L -2.587971 7.490726 
C -2.473371 7.490726 -2.380487 7.58361 -2.380487 7.69821 
C -2.380487 7.81281 -2.473371 7.905694 -2.587971 7.905694 
L -4.863218 7.905694 
C -4.977818 7.905694 -5.070702 7.81281 -5.070702 7.69821 
C -5.070702 7.58361 -4.977818 7.490726 -4.863218 7.490726 
L -4.4595 7.490726 
L -4.222599 3.211368 
L -5.086978 3.237373 
C -5.089053 3.237419 -5.09115 3.237465 -5.093225 3.237465 
C -5.147079 3.237465 -5.198927 3.216509 -5.237703 3.178886 
C -5.277978 3.139809 -5.300686 3.086094 -5.300686 3.029981 
L -5.300686 2.63318 
L -5.508216 2.63318 
L -5.508216 4.643884 
C -5.508216 4.758484 -5.6011 4.851368 -5.7157 4.851368 
C -5.830301 4.851368 -5.923184 4.758484 -5.923184 4.643884 
L -5.923184 2.627992 
C -6.015838 2.607175 -6.085068 2.524596 -6.085068 2.425696 
C -6.085068 2.326795 -6.015814 2.244216 -5.923207 2.223399 
z
M -3.407325 7.490726 
L -3.645194 3.193986 
L -3.806317 3.198827 
L -4.04391 7.490726 
L -3.407325 7.490726 
z
M -4.885718 2.816157 
L -2.483722 2.743884 
C -2.344592 2.739688 -2.235594 2.62737 -2.235594 2.488171 
C -2.235594 2.34895 -2.344592 2.236632 -2.483722 2.232459 
L -4.885718 2.160185 
L -4.885718 2.816157 
z
" style="stroke: #db5f57"/>
    </defs>
    <g clip-path="url(#p68f921489c)">
     <use xlink:href="#maf0824c8bd" x="57.681818" y="181.8" style="fill: #db5f57; stroke: #db5f57"/>
     <use xlink:href="#maf0824c8bd" x="184.5" y="181.8" style="fill: #db5f57; stroke: #db5f57"/>
     <use xlink:href="#maf0824c8bd" x="311.318182" y="181.8" style="fill: #db5f57; stroke: #db5f57"/>
    </g>
   </g>
   <g id="patch_3">
    <path d="M 45 320.4 
L 45 43.2 
" style="fill: none; stroke: #cccccc; stroke-width: 0.8; stroke-linejoin: miter; stroke-linecap: square"/>
   </g>
   <g id="patch_4">
    <path d="M 324 320.4 
L 324 43.2 
" style="fill: none; stroke: #cccccc; stroke-width: 0.8; stroke-linejoin: miter; stroke-linecap: square"/>
   </g>
   <g id="patch_5">
    <path d="M 45 320.4 
L 324 320.4 
" style="fill: none; stroke: #cccccc; stroke-width: 0.8; stroke-linejoin: miter; stroke-linecap: square"/>
   </g>
   <g id="patch_6">
    <path d="M 45 43.2 
L 324 43.2 
" style="fill: none; stroke: #cccccc; stroke-width: 0.8; stroke-linejoin: miter; stroke-linecap: square"/>
   </g>
  </g>
 </g>
 <defs>
  <clipPath id="p68f921489c">
   <rect x="45" y="43.2" width="279" height="277.2"/>
  </clipPath>
 </defs>
</svg>
